<svg xmlns="http://www.w3.org/2000/svg" width="194" height="29" fill="none"><path fill="url(#a)" d="M11.092 28.425c-2.156 0-4.236-.263-6.242-.79-1.98-.55-3.597-1.253-4.85-2.105l2.444-5.49c1.178.753 2.532 1.38 4.06 1.88 1.555.477 3.096.715 4.626.715 1.027 0 1.854-.088 2.481-.263.627-.2 1.078-.451 1.354-.752.3-.326.45-.702.45-1.128 0-.602-.275-1.078-.826-1.429-.552-.35-1.266-.64-2.144-.865a66.862 66.862 0 0 0-2.932-.677 31.93 31.93 0 0 1-3.196-.864 13.342 13.342 0 0 1-2.895-1.354 6.969 6.969 0 0 1-2.144-2.218c-.551-.928-.827-2.093-.827-3.497 0-1.58.426-3.008 1.279-4.286.877-1.279 2.18-2.307 3.91-3.084 1.73-.777 3.885-1.165 6.467-1.165 1.73 0 3.422.2 5.076.601 1.68.376 3.17.94 4.474 1.692l-2.293 5.527C18.11 8.197 16.87 7.696 15.64 7.37c-1.228-.351-2.418-.527-3.572-.527-1.027 0-1.854.113-2.481.339-.627.2-1.078.476-1.354.827-.275.35-.413.752-.413 1.203 0 .576.263 1.04.79 1.391.55.326 1.265.602 2.143.827.902.2 1.88.414 2.932.64 1.078.225 2.143.513 3.196.864a11.21 11.21 0 0 1 2.933 1.354 6.17 6.17 0 0 1 2.106 2.218c.551.903.827 2.043.827 3.422 0 1.529-.439 2.945-1.316 4.249-.852 1.278-2.143 2.306-3.873 3.083-1.705.777-3.86 1.165-6.467 1.165Zm22.727-.188c-2.607 0-4.637-.639-6.09-1.917-1.455-1.304-2.181-3.259-2.181-5.866V2.97h7.143V20.38c0 .727.2 1.303.602 1.73.401.4.915.601 1.542.601.852 0 1.579-.213 2.18-.639l1.767 5c-.601.402-1.34.69-2.218.865-.877.201-1.792.301-2.745.301ZM22.577 13.611v-5.34h14.777v5.34H22.577ZM52.855 27.9V24.1l-.489-.94v-6.993c0-1.128-.35-1.993-1.053-2.595-.677-.626-1.767-.94-3.271-.94a9.57 9.57 0 0 0-2.97.49c-1.003.3-1.855.726-2.557 1.278l-2.407-4.85c1.154-.753 2.532-1.33 4.137-1.73 1.629-.426 3.246-.64 4.85-.64 3.309 0 5.865.765 7.67 2.294 1.83 1.504 2.745 3.873 2.745 7.106V27.9h-6.655Zm-6.016.338c-1.63 0-3.008-.275-4.136-.827-1.128-.551-1.993-1.303-2.595-2.256-.576-.952-.864-2.018-.864-3.196 0-1.253.313-2.331.94-3.233.651-.928 1.642-1.63 2.97-2.106 1.329-.501 3.046-.752 5.151-.752h4.813v3.722h-3.835c-1.153 0-1.968.188-2.444.564-.451.376-.677.878-.677 1.504 0 .627.238 1.128.715 1.504.476.376 1.127.564 1.955.564.777 0 1.479-.188 2.105-.564.652-.4 1.128-1.002 1.429-1.804l.978 2.632c-.376 1.403-1.116 2.469-2.219 3.195-1.078.702-2.506 1.053-4.286 1.053ZM62.89 27.9V7.519h6.806v5.942l-1.015-1.692c.601-1.53 1.579-2.67 2.932-3.422 1.354-.777 2.996-1.165 4.926-1.165v6.43a5.755 5.755 0 0 0-.865-.076 6.842 6.842 0 0 0-.752-.038c-1.454 0-2.632.401-3.534 1.204-.903.777-1.354 2.055-1.354 3.835v9.362h-7.144Zm15.77 0V1.579h13.461c3.46 0 6.041.64 7.746 1.918 1.704 1.253 2.557 2.907 2.557 4.963 0 1.353-.364 2.544-1.091 3.572-.702 1.002-1.704 1.805-3.008 2.406-1.278.577-2.807.865-4.587.865l.752-1.805c1.855 0 3.472.289 4.85.865 1.379.552 2.444 1.366 3.196 2.444.778 1.053 1.166 2.344 1.166 3.873 0 2.28-.927 4.06-2.782 5.339-1.83 1.253-4.512 1.88-8.047 1.88H78.662Zm7.37-5.377h6.242c1.278 0 2.243-.213 2.895-.639.677-.451 1.015-1.128 1.015-2.03 0-.903-.338-1.567-1.015-1.993-.652-.451-1.617-.677-2.895-.677h-6.768v-5.151h5.64c1.253 0 2.193-.213 2.82-.64.626-.425.94-1.065.94-1.917 0-.852-.314-1.479-.94-1.88-.627-.426-1.567-.64-2.82-.64H86.03v15.567Zm28.634 5.715c-1.654 0-3.145-.325-4.474-.977-1.303-.652-2.331-1.667-3.083-3.046-.727-1.404-1.091-3.17-1.091-5.301V7.52h7.144v10.227c0 1.58.289 2.707.865 3.384.602.677 1.442 1.015 2.519 1.015.702 0 1.341-.163 1.918-.489.576-.326 1.04-.84 1.391-1.541.351-.727.527-1.655.527-2.783V7.52h7.143v20.379h-6.805v-5.753l1.316 1.617c-.702 1.504-1.717 2.632-3.046 3.384a8.859 8.859 0 0 1-4.324 1.09Zm26.748 0c-2.256 0-4.274-.45-6.053-1.353-1.755-.903-3.134-2.143-4.136-3.723-1.003-1.604-1.504-3.434-1.504-5.49 0-2.055.501-3.872 1.504-5.451 1.002-1.58 2.381-2.808 4.136-3.685 1.779-.902 3.797-1.353 6.053-1.353 2.306 0 4.299.488 5.978 1.466 1.68.978 2.871 2.356 3.572 4.136l-5.527 2.82c-.476-.953-1.065-1.642-1.767-2.068a4.158 4.158 0 0 0-2.293-.677c-.828 0-1.58.188-2.256.564-.677.376-1.216.928-1.617 1.654-.376.702-.564 1.567-.564 2.595 0 1.053.188 1.942.564 2.67.401.726.94 1.278 1.617 1.654a4.562 4.562 0 0 0 2.256.564c.827 0 1.591-.213 2.293-.64.702-.45 1.291-1.153 1.767-2.105l5.527 2.82c-.701 1.78-1.892 3.158-3.572 4.136-1.679.977-3.672 1.466-5.978 1.466Zm16.98-4.098.188-8.535 8.309-8.084h8.46l-9.212 9.513-3.647 2.932-4.098 4.174Zm-5.941 3.76V0h7.144v27.899h-7.144Zm14.965 0-6.242-7.82 4.437-5.49 10.452 13.31h-8.647Zm16.393.338c-1.73 0-3.422-.2-5.076-.601-1.63-.401-2.946-.903-3.948-1.504l2.143-4.888c.952.576 2.068 1.04 3.346 1.391 1.279.326 2.532.489 3.76.489 1.203 0 2.031-.126 2.482-.376.476-.25.714-.59.714-1.015 0-.402-.225-.69-.677-.865-.426-.2-1.002-.351-1.729-.451-.702-.1-1.479-.214-2.331-.339a33.562 33.562 0 0 1-2.595-.489 9.415 9.415 0 0 1-2.368-.977 5.087 5.087 0 0 1-1.692-1.805c-.427-.752-.64-1.704-.64-2.857 0-1.304.376-2.457 1.128-3.46.777-1.027 1.905-1.83 3.384-2.406 1.479-.602 3.284-.902 5.415-.902 1.428 0 2.87.15 4.324.45 1.479.276 2.719.703 3.722 1.28l-2.143 4.85c-1.003-.577-2.006-.966-3.008-1.166a13.032 13.032 0 0 0-2.858-.338c-1.203 0-2.055.137-2.557.413-.476.276-.714.614-.714 1.015 0 .401.213.715.639.94.426.2.99.364 1.692.489.727.1 1.517.213 2.369.338.852.1 1.705.264 2.557.49a8.063 8.063 0 0 1 2.369 1.014 4.682 4.682 0 0 1 1.729 1.768c.426.726.639 1.666.639 2.82a5.384 5.384 0 0 1-1.165 3.384c-.752 1.002-1.88 1.804-3.384 2.406-1.479.601-3.321.902-5.527.902Z"/><defs><linearGradient id="a" x1="194.21" x2="53.38" y1="6.413" y2="83.219" gradientUnits="userSpaceOnUse"><stop stop-color="#237249"/><stop offset="1" stop-color="#35C66B"/></linearGradient></defs></svg>